<svg t="1687268020461" class="icon" viewBox="0 0 1024 1024" version="1.1" xmlns="http://www.w3.org/2000/svg" p-id="1247" width="32" height="32"><path d="M448 827.52h128a33.92 33.92 0 0 0 33.28-33.28 33.28 33.28 0 0 0-33.28-33.28H448a33.28 33.28 0 0 0-33.28 33.28 33.28 33.28 0 0 0 33.28 33.28z" fill="#5A5A5A" p-id="1248"></path><path d="M738.56 64H285.44a64 64 0 0 0-64 64v768a64 64 0 0 0 64 64h453.12a64 64 0 0 0 64-64V128a64 64 0 0 0-64-64z m0 832H285.44V128h453.12z" fill="#5A5A5A" p-id="1249"></path></svg>